<svg width="25" height="27" fill="none" xmlns="http://www.w3.org/2000/svg"><path d="M22.321.813H2.68c-.71 0-1.392.286-1.894.796A2.74 2.74 0 000 3.53v19.94c0 .72.282 1.412.785 1.922.502.51 1.183.797 1.894.797H22.32c.71 0 1.392-.287 1.894-.797A2.74 2.74 0 0025 23.47V3.53a2.74 2.74 0 00-.785-1.922 2.659 2.659 0 00-1.894-.796zm-.914 17.41l-.837 3.68a.852.852 0 01-.295.475.83.83 0 01-.52.184c-8.93 0-16.184-7.346-16.184-16.425a.897.897 0 01.19-.523.875.875 0 01.46-.305l3.627-.85a.984.984 0 01.188-.021.899.899 0 01.77.514l1.673 3.965c.041.107.064.22.068.335a.97.97 0 01-.307.658l-2.114 1.755a13.04 13.04 0 006.181 6.275l1.73-2.146a.944.944 0 01.648-.312.983.983 0 01.33.069l3.906 1.7a.9.9 0 01.359.32.93.93 0 01.149.46.995.995 0 01-.022.191z" fill="#4F4F4F"/></svg>